<?xml version="1.0" encoding="utf-8"?>
<!-- Generator: Adobe Illustrator 23.0.3, SVG Export Plug-In . SVG Version: 6.00 Build 0)  -->
<svg version="1.1" id="Layer_1" xmlns="http://www.w3.org/2000/svg" xmlns:xlink="http://www.w3.org/1999/xlink" x="0px" y="0px"
	 viewBox="0 0 800 800" style="enable-background:new 0 0 800 800;" xml:space="preserve">
<style type="text/css">
	.st0{fill:#FFA800;}
	.st1{fill:#005589;}
	.st2{fill:#FFFFFF;}
	.st3{fill:none;}
	.st4{font-family:'PlayfairDisplay-Bold';}
	.st5{font-size:233.9664px;}
	.st6{letter-spacing:11;}
	.st7{opacity:0.3;stroke:#000000;stroke-miterlimit:10;}
</style>
<g>
	<path class="st0" d="M391.5,685c161.45-72.08,224.97-198.87,224.97-198.87V223.25c0,0-129.58-8.03-224.97-114.11
		c-95.4,106.08-224.97,114.11-224.97,114.11v262.87C166.53,486.13,230.05,612.92,391.5,685z"/>
	<path class="st1" d="M391.11,638.36c132.39-59.1,184.47-163.08,184.47-163.08V259.73c0,0-106.25-6.59-184.47-93.57
		c-78.23,86.99-184.47,93.57-184.47,93.57v215.56C206.64,475.29,258.72,579.26,391.11,638.36z"/>
	<polygon class="st2" points="390.54,229.26 398.89,246.16 417.54,248.88 404.04,262.03 407.23,280.61 390.54,271.84 373.86,280.61 
		377.05,262.03 363.55,248.88 382.2,246.16 	"/>
	<polygon class="st2" points="293.36,268.42 298.92,279.68 311.36,281.49 302.36,290.26 304.48,302.65 293.36,296.8 282.23,302.65 
		284.36,290.26 275.36,281.49 287.8,279.68 	"/>
	<polygon class="st2" points="480.53,268.42 486.09,279.68 498.53,281.49 489.53,290.26 491.65,302.65 480.53,296.8 469.41,302.65 
		471.53,290.26 462.53,281.49 474.97,279.68 	"/>
	
		<rect x="279.54" y="248.95" transform="matrix(8.563264e-03 -1 1 8.563264e-03 -33.6042 810.6204)" class="st3" width="224.91" height="346.61"/>
	<text transform="matrix(1 8.580000e-03 -8.580000e-03 1 226.8923 491.5513)" class="st2 st4 st5 st6">AU</text>
	<path class="st7" d="M392.3,685C552.84,612.91,616,486.08,616,486.08V223.14c0,0-128.85-8.04-223.7-114.14V685z"/>
</g>
</svg>
