<?xml version="1.0" encoding="utf-8"?>
<!-- Generator: Adobe Illustrator 21.1.0, SVG Export Plug-In . SVG Version: 6.00 Build 0)  -->
<svg version="1.1" id="Layer_1" xmlns="http://www.w3.org/2000/svg" xmlns:xlink="http://www.w3.org/1999/xlink" x="0px" y="0px"
	 viewBox="0 0 678 341" style="enable-background:new 0 0 678 341;" xml:space="preserve">
<style type="text/css">
	.st0{fill:#FFA800;}
	.st1{fill:#005589;}
	.st2{fill:#FFFFFF;}
	.st3{fill:none;}
	.st4{font-family:'PlayfairDisplay-Bold';}
	.st5{font-size:130px;}
	.st6{opacity:0.3;stroke:#000000;stroke-miterlimit:10;}
	.st7{font-size:120px;}
	.st8{font-family:'PlayfairDisplay-Regular';}
	.st9{font-size:72px;}
	.st10{font-size:100px;}
	.st11{font-size:60px;}
</style>
<g>
	<path class="st0" d="M144.5,331.6c89.7-40,125-110.5,125-110.5V75c0,0-72-4.5-125-63.4C91.5,70.6,19.5,75,19.5,75v146.1
		C19.5,221.1,54.8,291.6,144.5,331.6z"/>
	<path class="st1" d="M144.3,305.7c73.6-32.8,102.5-90.6,102.5-90.6V95.3c0,0-59-3.7-102.5-52c-43.5,48.3-102.5,52-102.5,52v119.8
		C41.8,215.1,70.8,272.8,144.3,305.7z"/>
	<polygon class="st2" points="144,78.4 148.6,87.8 159,89.3 151.5,96.6 153.3,106.9 144,102 134.7,106.9 136.5,96.6 129,89.3 
		139.4,87.8 	"/>
	<polygon class="st2" points="90,100.1 93.1,106.4 100,107.4 95,112.3 96.2,119.2 90,115.9 83.8,119.2 85,112.3 80,107.4 
		86.9,106.4 	"/>
	<polygon class="st2" points="194,100.1 197.1,106.4 204,107.4 199,112.3 200.2,119.2 194,115.9 187.8,119.2 189,112.3 184,107.4 
		190.9,106.4 	"/>
	
		<rect x="81.2" y="89.3" transform="matrix(8.563264e-03 -1 1 8.563264e-03 -43.1414 327.7119)" class="st3" width="125" height="192.6"/>
	<text transform="matrix(1 8.580000e-03 -8.580000e-03 1 55.1975 224.132)" class="st2 st4 st5">AU</text>
	<path class="st6" d="M145,330c89.7-39.9,125-110.2,125-110.2V74.2c0,0-72-4.4-125-63.2V330z"/>
	<text transform="matrix(1 0 0 1 286 155)"><tspan x="0" y="0" class="st1 st4 st7">A</tspan><tspan x="80" y="0" class="st1 st8 st9">CADEMY</tspan><tspan x="0" y="100" class="st1 st4 st10">U</tspan><tspan x="68.9" y="100" class="st1 st8 st11">NIVERSITY</tspan></text>
</g>
</svg>
